<?xml version="1.0" encoding="UTF-8" standalone="no"?>
<svg id="svg6315" xmlns:rdf="http://www.w3.org/1999/02/22-rdf-syntax-ns#" xmlns="http://www.w3.org/2000/svg" height="274.33mm" width="230.35mm" version="1.1" xmlns:cc="http://creativecommons.org/ns#" xmlns:dc="http://purl.org/dc/elements/1.1/" viewBox="0 0 816.21562 972.03668">
<defs id="defs6317">
<linearGradient id="XMLID_481_" y2="91.9" gradientUnits="userSpaceOnUse" x2="88.797" gradientTransform="matrix(7.7103 0 0 7.7103 -374.72 -20.987)" y1="15.762" x1="88.797">
<stop id="stop310" stop-color="#D2D0CF" offset="0"/>
<stop id="stop312" stop-color="#BCBBBB" offset="1"/>
</linearGradient>
<linearGradient id="XMLID_482_" y2="63.055" gradientUnits="userSpaceOnUse" x2="62.5" gradientTransform="matrix(7.7103 0 0 7.7103 -374.72 -20.987)" y1="63.055" x1="52.233">
<stop id="stop317" stop-color="#D2D0CF" offset="0"/>
<stop id="stop319" stop-color="#BCBBBB" offset="1"/>
</linearGradient>
<linearGradient id="XMLID_483_" y2="55.522" gradientUnits="userSpaceOnUse" x2="113.97" gradientTransform="matrix(7.7103 0 0 7.7103 -374.72 -20.987)" y1="55.522" x1="79.597">
<stop id="stop324" stop-color="#D2D0CF" offset="0"/>
<stop id="stop326" stop-color="#BCBBBB" offset="1"/>
</linearGradient>
<linearGradient id="XMLID_484_" y2="74.182" gradientUnits="userSpaceOnUse" y1="74.182" gradientTransform="matrix(7.7103 0 0 7.7103 -374.72 -20.987)" x2="127.85" x1="50.981">
<stop id="stop333" stop-color="#D2D0CF" offset="0"/>
<stop id="stop335" stop-color="#BCBBBB" offset="1"/>
</linearGradient>
<linearGradient id="XMLID_485_" y2="36.716" gradientUnits="userSpaceOnUse" y1="36.716" gradientTransform="matrix(7.7103 0 0 7.7103 -374.72 -20.987)" x2="124.96" x1="63.398">
<stop id="stop359" stop-color="#D2D0CF" offset="0"/>
<stop id="stop361" stop-color="#BCBBBB" offset="1"/>
</linearGradient>
</defs>
<g id="layer1" transform="translate(88.108 -69.201)">
<g id="g6058" transform="matrix(1.3132 0 0 1.3132 -88.108 69.201)">
<path id="XMLID_121_" d="m308.41 100.84c-161.92 0-292.99 136.47-292.99 304.56 0 89.439 44.72 199.7 117.97 255.21 34.696 26.215 82.5 29.299 125.68 25.444 87.126-8.4813 171.94-42.406 240.56-97.149 2.3131-1.542 8.4813-9.2523 10.794-10.794l18.505-18.505c31.612-33.925 69.392-80.958 73.247-129.53 4.6262-52.43-9.2523-111.8-31.612-158.83-47.033-101.78-148.81-170.4-262.15-170.4z" class="st33" stroke="#000" stroke-miterlimit="10" stroke-width="30.841"/>
<path id="XMLID_118_" d="m224.37 502.54l45.491-45.491c47.033-47.033 94.836-95.607 128.76-152.66-6.1682-0.77103-11.565-1.542-17.734-2.3131 35.467-26.215 81.729-36.238 124.91-28.528-6.1682-33.925-12.336-68.621-18.505-102.55 25.444 16.963 46.262 40.864 59.369 68.621-5.3972-0.77103-10.023-1.542-15.421-2.3131 0.77103 49.346 1.542 98.691 3.0841 147.27 11.565-6.9392 23.902-13.878 35.467-20.047-5.3972 29.299-26.215 53.972-50.117 70.934-23.902 16.963-53.201 26.986-80.958 37.009-74.018 25.444-150.35 47.033-228.99 52.43 9.2523-8.4813 16.963-18.505 22.36-30.07"/>
<g stroke="#000" stroke-width="30.841" stroke-miterlimit="10">
<path id="XMLID_117_" d="m107.17 499.46c-33.923-12.34-44.717-55.52-74.016-76.34-6.9392 18.505-6.9392 39.322 1.5421 57.827 5.3972 11.565 8.4813 16.192 16.192 26.215" class="st33"/>
<path id="XMLID_116_" d="m87.897 501c-26.215-10.03-33.925-43.18-56.285-59.37-5.3972 14.649-5.3972 30.841 0.77103 44.719 3.8551 9.2523 6.1682 13.107 12.336 20.818" class="st33"/>
<path id="XMLID_115_" d="m239.02 497.91c73.247-40.864 125.68-125.68 197.38-171.17 7.7103-5.3972 16.192-10.023 24.673-10.023 28.528-1.542 52.43 40.093 39.322 73.247 0.77102 5.3972 3.0841 3.8551 0 7.7102-1.5421 16.963-10.023 26.986-20.818 37.009" class="st33"/>
<path id="XMLID_114_" d="m239.02 497.91c73.247-31.612 125.68-98.691 197.38-134.93 7.7103-3.8551 16.192-7.7103 24.673-7.7103 28.528-1.542 52.43 31.612 39.322 57.827 0.77102 3.8551 3.0841 3.0841 0 6.1682-1.5421 13.107-10.023 21.589-20.818 29.299" class="st33"/>
<path id="XMLID_113_" d="m188.9 126.28c-38.551 64.766-51.659 141.1-61.682 215.12-7.7103 59.369-13.878 120.28 0 178.88 13.878 58.598 50.117 114.88 106.4 140.33" class="st33"/>
</g>
<path id="XMLID_311_" d="m24.673 477.87c13.878 18.505 39.322 23.131 62.453 25.444 97.149 8.4813 193.53-10.023 285.28-38.551 47.033-14.649 92.523-31.612 138.01-50.117 33.925-13.107 55.514-15.421 81.729-41.635 6.1682 5.3972 10.023 13.107 12.336 20.818 20.047 53.972-9.2523 113.34-45.491 158.06-28.528 33.925-61.682 63.995-98.691 87.897-54.743 35.467-116.42 59.369-178.11 81.729-48.575 17.734-56.285 3.0841-88.668-24.673-31.6-27-72.47-40.11-102.54-70.95-30.84-32.38-50.887-73.24-70.162-113.34-4.626-10.02-1.542-17.73-1.542-29.3"/>
<path id="XMLID_310_" d="m24.673 477.87c8.4813 9.2523 20.047 14.649 31.612 17.734 11.565 2.3131 23.902 3.0841 36.238 3.0841s24.673 0 37.009-0.77103c12.336-0.77102 24.673-1.542 37.009-3.0841 12.336-1.542 24.673-3.0841 36.238-5.3972 12.336-2.3131 24.673-3.0841 36.238-5.3972 23.902-3.8551 48.575-9.2523 72.476-15.421 47.804-12.336 94.836-27.757 141.1-45.491l34.696-13.107c11.565-4.6262 23.131-9.2523 35.467-13.878 12.336-3.8551 23.902-7.7102 33.925-13.107 10.023-4.6262 19.276-11.565 26.986-20.047l7.7103-7.7103 7.7102 7.7103c9.2523 9.2523 13.878 19.276 16.963 30.07 0.77102 2.3131 1.542 4.6262 2.3131 6.9392l1.542 8.4813c0.77102 5.3972 1.542 10.794 1.542 16.192 0.77102 20.818-3.0841 41.635-10.794 60.14-6.9392 19.276-16.963 36.238-28.528 52.43s-23.902 30.841-37.78 45.491c-13.878 13.878-27.757 26.986-43.177 39.322-15.421 12.336-31.612 23.902-47.804 33.925-16.963 10.023-33.925 19.276-51.659 27.757-17.734 8.4813-35.467 16.192-53.201 23.131-17.734 6.9392-35.467 13.878-53.972 20.818-4.6262 1.542-8.4813 3.0841-13.878 5.3972-4.6262 1.542-9.2523 3.0841-14.649 4.6262-10.023 2.3131-21.589 3.8551-33.925 0.77102s-21.589-10.794-28.528-16.963c-7.7103-6.1682-14.649-13.107-21.589-18.505-13.878-11.565-30.07-20.818-46.262-30.07-8.4813-4.6262-16.963-10.023-25.444-15.421-8.5-5.41-16.215-12.35-23.154-20.06-13.879-14.65-24.673-31.61-34.696-48.58-9.253-16.96-17.734-34.69-25.444-52.43-0.77103-6.9392-4.6262-16.192-8.4813-25.444-1.542-4.6262-2.3131-10.023-1.542-14.649 0.77102-4.6262 1.542-9.2523 1.542-13.878 0.77102 9.2523-1.542 19.276 3.0841 27.757l13.878 24.673c9.2523 16.192 19.276 32.383 30.07 47.804s23.131 29.299 37.009 40.864c6.9392 5.3972 14.649 10.794 21.589 15.421 7.7103 5.3972 15.421 10.023 23.131 14.649 16.192 9.2523 33.925 19.276 49.346 32.383 7.7103 6.1682 14.649 13.107 21.589 18.505 6.9392 6.1682 13.107 10.794 20.047 12.336 6.1682 1.542 13.878 0.77102 22.36-0.77103 3.8551-0.77103 7.7103-2.3131 12.336-3.8551 3.8551-1.542 8.4813-3.0841 13.107-4.6262 17.734-6.9392 35.467-13.107 53.201-20.818 17.734-6.9392 34.696-14.649 51.659-22.36 16.963-7.7103 33.154-16.963 49.346-26.215 16.192-10.023 30.841-20.047 45.491-32.383 14.649-11.565 28.528-23.902 40.864-37.78 13.107-13.107 25.444-27.757 35.467-42.406s19.276-30.841 25.444-47.804c6.1682-16.963 10.023-33.925 9.2523-51.659 0-3.8551-0.77103-8.4813-1.5421-12.336l-0.77102-6.1682c-0.77103-2.3131-1.542-4.6262-2.3131-6.9392-2.3131-7.7103-6.1682-15.421-10.794-19.276h16.192c-9.2523 9.2523-20.818 18.505-33.154 23.902-12.336 6.1682-24.673 10.023-36.238 13.878-11.565 3.8551-23.131 8.4813-34.696 13.107l-35.467 13.107c-47.033 17.734-94.836 33.925-143.41 46.262-24.673 6.1682-49.346 11.565-74.018 15.421-6.1682 0.77103-12.336 2.3131-18.505 3.0841-6.1682 0.77103-12.336 1.542-19.276 2.3131-12.336 0.77103-25.444 0.77103-37.78 0.77103s-25.444 0-37.78-1.5421c-12.336-0.77102-25.444-2.3131-37.78-3.8551s-25.444-3.8551-37.009-8.4813c-10.023-3.8551-21.589-10.794-27.757-21.589z"/>
<path id="XMLID_108_" opacity="0.76" d="m498.85 571.16c-5.3972 7.7103-13.878 13.107-23.131 13.878 10.794-26.215 13.878-54.743 17.734-82.5 3.0841-20.818 7.7102-43.948 25.444-56.285 6.1682 12.336 4.6262 26.986 2.3131 40.864-1.542 11.565-3.0841 23.902-5.3972 35.467-3.0841 17.734-5.3972 35.467-16.963 48.575" class="st12"/>
<path id="XMLID_105_" d="m226.68 540.32c0-6.9392 1.542-14.649 6.9392-18.505 4.6262-3.8551 11.565-4.6262 17.734-4.6262 3.0841 0 5.3972 0 7.7103 1.5421 3.8551 2.3131 5.3972 6.1682 7.7103 10.794 12.336 32.383 0.77102 63.224-6.9392 95.607-3.8551 16.963-16.192 33.154-24.673 48.575-1.542 3.8551-6.1682 7.7102-9.2523 4.6262-2.3131-1.542-1.542-4.6262-0.77102-7.7103 6.1682-21.589 12.336-43.177 13.878-65.537 0.77103-11.565 0.77103-23.902-2.3131-35.467-2.3131-10.023-10.023-18.505-10.023-29.299z"/>
<path id="XMLID_102_" d="m434.09 497.14c-0.77103-12.336 6.1682-23.902 16.192-32.383 10.023-8.4813 22.36-13.878 35.467-18.505 3.0841-0.77102 6.1682-1.542 7.7103 0.77103 0.77102 1.542 0.77102 3.0841 0 4.6262-3.0841 11.565-10.023 22.36-13.878 33.925-10.794 28.528-7.7102 60.14-16.192 89.439-3.0841 9.2523-6.9392 19.276-14.649 26.215-7.7103 7.7103-18.505 12.336-30.07 11.565 18.505-37.78 25.444-80.187 20.047-120.28"/>
<path id="XMLID_99_" d="m325.37 541.86c0.77102-6.9392-7.7103-10.794-10.023-17.734-2.3131-8.4813 6.9392-15.421 14.649-19.276 10.794-5.3972 21.589-10.023 33.154-14.649 3.8551-1.5421 7.7102-3.0841 10.794-2.3131 6.1682 1.542 9.2523 7.7103 11.565 13.878 10.023 30.07 6.9392 63.995-6.9392 92.523s-38.551 51.659-67.079 64.766c12.336-12.336 18.505-29.299 21.589-46.262 2.3131-16.963 1.5421-34.696 0.77103-51.659-0.77103-10.023-2.3131-21.589-10.023-27.757"/>
<path id="XMLID_98_" opacity="0.76" d="m319.98 645.95c-0.77103 6.1682-4.6262 12.336-10.794 15.421-0.77103-30.841-3.0841-61.682-6.9392-91.752-1.542-14.649-3.8551-30.841 5.3972-41.635 6.9392-8.4813 18.505-12.336 27.757-18.505 4.6262 3.8551 5.3972 11.565 5.3972 17.734 0 18.505 0 36.238-0.77102 54.743 0 23.902-1.5421 49.346-17.734 66.308" class="st12"/>
<path id="XMLID_95_" d="m538.95 430.83c3.0841-6.9392 7.7103-13.878 13.878-18.505 6.1682-4.6262 15.421-5.3972 21.589 0 3.0841 3.0841 4.6262 6.9392 6.1682 10.794 5.3972 18.505 0.77102 37.78-4.6262 56.285-3.8551 12.336-7.7102 24.673-12.336 36.238-4.6262 12.336-10.023 23.902-18.505 33.925-11.565 13.107-29.299 20.818-45.491 26.986 22.36-47.033 37.78-97.92 44.719-149.58"/>
<path id="XMLID_94_" opacity="0.76" d="m427.92 595.83c-2.3131 10.794-13.878 18.505-23.902 16.192 8.4813-29.299 4.6262-60.911 3.0841-91.752 0-5.3972-0.77103-10.794 1.542-15.421 2.3131-6.1682 7.7103-10.794 12.336-14.649 3.8551-3.0841 8.4813-6.9392 13.878-5.3972 6.1682 1.542 8.4813 9.2523 9.2523 16.192 2.3131 20.047 4.6262 40.093-1.542 59.369-3.8551 11.565-10.023 23.131-11.565 35.467" class="st12"/>
<path id="XMLID_91_" d="m33.925 511.02c2.3131 5.3972 5.3972 10.023 7.7103 15.421-3.855-12.34-7.71-11.56-11.565-23.13 15.421 10.023 32.383 16.192 50.117 18.505 7.7103 1.542 16.192 1.542 23.131 5.3972 8.4813 4.6262 13.107 13.878 17.734 23.131 6.9392 13.878 13.107 27.757 18.505 41.635 3.0841 8.4813 6.1682 16.963 10.023 24.673 12.336 27.757 31.612 52.43 54.743 72.476-3.0841 3.8551-8.4813 0.77103-12.336-2.3131-25.44-19.28-50.11-38.56-75.56-57.83-14.64-10.8-28.523-21.59-40.859-35.47-17.734-19.28-30.07-42.41-35.468-67.85"/>
<path id="XMLID_90_" d="m196.61 699.15c28.528 0 56.285-6.9392 83.271-13.878 45.491-11.565 88.988-24.92 132.17-41.883 38.551-14.649 73.832-32.262 106.99-57.705" class="st33" stroke="#000" stroke-miterlimit="10" stroke-width="30.841"/>
<path id="XMLID_89_" opacity=".7" d="m301.47 503.31c70.934-26.986 142.64-53.972 212.8-81.729 23.902-9.2523 47.804-19.276 71.705-29.299 4.6262 14.649 6.1682 30.07 4.6262 45.491 0-11.565-13.107-19.276-24.673-16.963-11.565 2.3131-20.818 9.2523-30.07 16.192-53.201 39.322-118.74 57.056-183.5 72.476-24.673 6.1682-51.659 13.107-67.85 33.154-3.0841-10.023-2.3131-20.818 3.0841-29.299 5.3972-8.4813 16.192-13.878 26.215-13.107" class="st34"/>
<path id="XMLID_88_" opacity="0.76" d="m228.22 663.68c0.77103 5.3972 0.77103 10.794 0 15.421-20.818-31.612-10.794-63.995-13.878-99.462-1.542-14.649-5.3972-36.238 6.9392-48.575 14.649-15.421 23.131 3.0841 23.902 16.963 0.77102 11.565 0.77102 23.131 0.77102 33.925s0 20.818-2.3131 31.612c-3.8551 17.734-13.107 34.696-12.336 53.201-0.77102-0.77103-1.542-2.3131-1.542-3.0841" class="st12"/>
<g stroke="#000" stroke-width="30.841" stroke-miterlimit="10">
<path id="XMLID_87_" d="m141.1 542.63h-2.3131c15.421 0 23.131-2.3131 39.322-3.0841 0.77103 0 1.542 0 2.3131 0.77103v3.0841c5.3972 42.406 10.794 84.813 15.421 127.22-19.276-6.9392-29.299-28.528-35.467-48.575-8.4813-24.673-16.192-49.346-23.902-74.018-3.0841-2.3131-2.3131-4.6262 1.542-6.9392" class="st33"/>
<path id="XMLID_86_" d="m230.54 534.15c6.1682-13.107 20.818-14.649 26.215-2.3131 13.107 29.299-21.589 143.41-30.07 138.01-3.0841-1.542 0-16.192 0-85.584 0-27.757-0.77103-40.864 3.8551-50.117z" class="st33"/>
<path id="XMLID_85_" d="m535.86 543.4c14.649-21.589 24.673-49.346 29.299-64.766 2.3131-9.2523 6.1682-51.659-6.1682-55.514-2.3131-0.77102-5.3972 0-7.7103 0.77103-8.4813 2.3131-16.963 4.6262-23.131 10.023-15.421 12.336-13.878 49.346-17.734 67.079-5.3972 24.673-13.878 48.575-22.36 72.476 18.505 3.8551 35.467-10.794 47.804-30.07z" class="st33"/>
<path id="XMLID_84_" d="m417.12 604.31c16.192-33.925-3.0841-73.247 7.7103-107.94 1.542-5.3972 6.1682-10.023 10.794-13.878 12.336-11.565 26.215-20.818 40.864-26.986-13.878 6.1682-28.528 114.88-33.154 131.07-3.8551 10.794-15.421 22.36-26.215 17.734z" class="st33"/>
<path id="XMLID_83_" d="m320.75 526.44c12.336-10.794 26.215-19.276 41.635-24.673 2.3131-0.77102 3.8551-1.542 6.1682-0.77102 3.8551 0.77102 6.1682 6.1682 6.1682 10.023 2.3131 13.878 0.77103 27.757-0.77102 41.635-1.5421 13.107-3.8551 26.215-8.4813 38.551-5.3972 14.649-14.649 26.986-24.673 38.551-3.0841 3.8551-24.673 20.047-24.673 23.902 3.8551-33.925 6.9392-63.224 2.3131-97.92-1.5421-12.336-2.3131-27.757 8.4813-33.925" class="st33"/>
<path id="XMLID_82_" d="m54.743 532.61c8.4813 5.3972 17.734 10.794 28.528 11.565 3.8551 0 6.9392 0 10.023 1.542 3.8551 2.3131 6.1682 6.1682 7.7102 10.023 10.794 26.986 20.818 55.514 37.78 78.645-22.36-6.9392-38.551-26.986-52.43-46.262-10.022-13.89-27.756-33.93-29.298-52.44" class="st33"/>
<path id="XMLID_81_" d="m500.4 416.18c22.36-83.271 14.649-174.25-20.818-252.13" class="st33"/>
</g>
<path id="XMLID_106_" d="m589.06 309.01c-13.87-82.5-47.8-163.46-109.48-219.74-61.68-56.285-169.63-108.72-231.31-53.201-53.2 47.803-86.35 115.65-104.86 185.05-18.505 69.392-23.131 141.87-27.757 213.57 0 1.542 0 3.8551-0.77102 7.7102-0.77103 28.528 4.6262 52.43 10.023 68.621 8.4813-2.3131 20.047-6.1682 23.902-16.963 3.8551-10.023 3.0841-20.818 3.0841-31.612-3.0841-71.705 4.6262-144.18 26.986-212.03 12.336-37.78 25.444-76.332 49.346-108.71 33.925-45.491 70.163-42.406 123.36-43.948 4.6262 0 11.565 1.5421 10.794 6.1682 0.77103-6.1682 59.369 21.589 63.224 23.902 37.009 18.505 72.476 41.635 100.23 73.247 29.299 32.383 37.009 70.934 60.14 104.86"/>
<path id="XMLID_104_" d="m587.52 309.78c-5.3972-20.818-10.794-40.864-18.505-60.14-6.9392-19.276-15.42-38.551-25.444-57.056-10.023-18.505-20.818-35.467-33.154-51.659s-26.986-30.841-41.635-43.948c-8.4813-6.9392-16.192-13.107-24.673-18.505-8.4813-6.1682-16.963-11.565-25.444-16.963-17.734-10.023-36.238-18.505-54.743-25.444-18.505-6.1682-38.551-10.023-57.056-9.2523-18.505 0.77103-37.009 6.9392-50.888 18.505-3.8551 3.8551-8.4813 6.9392-11.565 10.794-3.8551 3.0841-6.9392 6.9392-10.794 10.794-6.9393 6.9392-13.878 15.421-20.047 23.131-13.107 16.192-23.902 33.925-33.925 52.43s-17.734 37.78-24.673 57.827c-6.1682 20.047-11.565 40.093-16.192 60.911-7.7102 41.635-11.565 83.271-13.878 125.68l-1.5421 31.612c0 10.794-0.771 21.589-0.771 31.612 0.771 20.047 4.6261 40.093 11.565 58.598l-13.878-6.9392c5.3972-1.542 9.2523-3.8551 12.336-5.3972 1.5421-0.77102 2.3131-2.3131 3.0841-3.0841 0-0.77103 0.771-0.77103 0.771-1.542v-0.77103-0.77102-1.5421c2.3131-7.7102 0.7711-18.505 0-30.07-0.771-11.565-0.771-23.131-0.771-34.696s0-23.131 0.771-34.696c2.3131-46.262 10.794-93.294 23.902-138.01 6.9393-22.36 13.878-43.948 23.902-66.308 4.6262-10.794 10.023-21.589 16.192-32.383 6.1682-10.794 13.878-20.818 22.36-30.07 9.2523-10.023 20.047-18.505 32.383-23.902 12.336-6.1682 25.444-9.2523 37.78-10.794 12.336-1.542 24.673-1.542 35.467-1.542 22.027 2.627 41.813 6.9991 76.332 16.963l17.734 8.4813 9.2523 4.6262 8.4813 4.6262c11.565 6.9392 23.131 13.878 34.696 21.589 10.794 7.7103 21.589 16.192 31.612 25.444 5.3971 4.6262 10.023 9.2523 14.65 14.649 4.6261 5.3972 9.2523 10.023 13.107 15.421 3.8551 4.6262 8.4813 11.565 11.565 16.963 3.0841 6.1682 6.9392 11.565 9.2523 17.734 11.565 24.673 19.276 49.346 32.383 71.705l-2.3131 1.542c-8.4813-10.794-15.42-21.589-21.589-33.925-6.1682-11.565-12.336-23.131-19.276-33.925-3.0841-5.3972-6.9392-10.794-10.794-16.192-3.8552-5.3972-6.9393-9.2523-12.336-14.649-3.8552-4.6262-9.2524-9.2523-13.878-13.107-4.6262-3.8551-9.2523-8.4813-14.65-12.336-10.023-7.7102-20.818-15.421-31.612-21.589-10.794-6.9392-22.36-12.336-33.154-18.505l-8.4812-3.8551-8.4813-3.8551-17.734-7.7102c-6.1682-2.3131-11.565-4.6262-17.734-6.9392-23.81-7.1312-16.484-7.2452-44.72-5.3972-11.565 0.77103-22.36 1.5421-32.383 3.0841s-19.276 3.8551-27.757 8.4813c-8.4813 3.8551-15.42 10.794-21.589 16.963-6.9392 7.7103-12.336 16.192-18.505 25.444-5.3972 9.2523-10.023 18.505-14.65 28.528-4.6262 10.023-8.4813 20.047-12.336 30.841-3.8552 10.794-7.7103 20.818-10.794 31.612-13.878 41.635-22.36 85.584-26.215 130.3-0.771 10.794-1.542 22.36-2.313 33.154 0 11.565-0.7711 22.36 0 33.925 0 10.794 1.542 23.131-2.3131 37.78l-0.771 3.0841-0.7711 2.3131c-0.771 2.3131-2.313 3.8551-3.0841 6.1682-3.0841 3.8551-6.1682 6.1682-9.2523 8.4813-6.9392 4.6262-13.107 6.1682-19.276 7.7103l-10.794 3.0841-3.0841-10.023c-6.1682-21.589-9.2523-43.948-8.4813-66.308 0.7711-10.794 1.5421-21.589 3.0841-32.383l3.0841-31.612c4.6262-42.406 10.023-84.813 18.505-126.45 4.6261-20.818 9.2523-41.635 15.42-62.453 6.1682-20.818 13.878-40.864 22.36-60.14 8.4813-20.047 18.505-38.551 30.841-57.056 6.1683-9.2523 12.336-17.734 19.276-26.215 3.0841-4.6262 6.9392-8.4813 10.794-12.336 3.8552-3.8551 7.7103-7.7103 11.565-11.565 4.6262-3.8551 9.2523-7.7102 13.878-11.565 5.3972-3.0841 10.794-6.1682 16.192-8.4813 5.3972-1.5421 11.565-4.6262 16.963-5.3972l8.4813-1.5421c3.0841-0.77102 6.1682-0.77102 8.4813-0.77102 23.902-2.3131 46.262 2.3131 67.85 9.2523 21.589 6.9392 40.864 16.963 60.14 28.528 9.2523 6.1682 18.505 11.565 26.986 18.505 8.4813 6.9392 17.734 13.878 25.444 20.818 33.154 30.07 57.827 67.079 74.79 107.17 8.4812 20.047 15.42 40.093 20.818 60.911 5.3971 20.818 8.4812 42.406 10.794 63.224z"/>
<path id="XMLID_76_" d="m307.64 482.49h-3.8551" class="st33" stroke="#000" stroke-miterlimit="10" stroke-width="30.841"/>
<path id="XMLID_73_" d="m47.033 290.51c19.276-47.804 51.659-90.21 93.294-121.05-32.383 77.874-50.117 161.14-52.43 245.19-0.77103 26.215 0.77102 54.743 16.192 75.561-26.986-28.528-48.575-62.453-63.995-98.691-3.8551 3.0841-6.9392 6.9392-10.794 10.023-5.3972-40.093 2.3131-80.958 21.589-116.42"/>
<path id="XMLID_70_" d="m266.77 716.11c-9.2523 8.4813-30.07 4.6262-35.467-6.9392 0 5.3972 3.8551 10.794 8.4813 12.336 5.3972 1.542 11.565-0.77103 14.649-5.3972-9.2523 3.0841-17.734 3.0841-18.505-6.9392 27.757-9.2523 56.285-17.734 85.584-23.902 29.299-6.1682 58.598-15.421 85.584-27.757-6.9392 3.0841-14.649 6.9392-21.589 10.023"/>
<path id="XMLID_69_" opacity="0.76" d="m161.92 458.59c0.77103-101.78 7.7103-210.49 69.392-291.45 10.794-13.878 23.131-26.986 38.551-34.696 11.565-6.1682 24.673-8.4813 37.78-10.023 58.598-6.1682 119.51 10.794 165.77 47.804-16.963-0.77103-33.925-1.542-50.117-2.3131-34.696-1.542-71.705-2.3131-103.32 13.107-32.383 16.192-53.201 47.804-71.705 78.645-35.467 60.14-64.766 124.14-87.126 190.44" class="st12"/>
<path id="XMLID_63_" opacity="0.54" d="m576.73 297.45c-23.9-94.84-101.01-194.3-198.16-225.14-43.17-13.11-88.66-18.508-126.44 10.02-36.238 27.757-63.995 67.079-82.5 108.71-23.902 53.972-33.154 112.57-40.864 171.17-3.0841 24.673-6.1682 50.888-3.8551 75.561 0.77103 11.565 3.0841 23.902 7.7103 34.696 1.542 5.3972 13.107 23.902 9.2523 29.299 6.9392-10.794 6.1682-23.902 6.1682-36.238s3.0841-23.902 1.542-36.238c-3.0841-29.299 1.542-57.827 5.3972-86.355 4.6262-31.612 9.2523-60.911 18.505-92.523 3.8551-13.107 10.023-24.673 13.878-37.78 10.023-32.383 24.673-66.308 50.117-89.439 16.192-14.649 37.009-23.131 58.598-26.215 30.841-2.3131 57.056-2.3131 86.355 6.1682 0.77102 1.5421-3.8551 2.3131-3.0841 3.8551 0.77102 0.77103 13.107 1.542 14.649 2.3131 6.1682 2.3131 12.336 6.9392 18.505 10.794 7.7103 4.6262 16.192 6.1682 23.902 10.023 9.2523 5.3972 18.505 10.794 27.757 16.192 10.023 5.3972 17.734 16.963 27.757 22.36 9.2523 5.3972 17.734 10.794 25.444 19.276 4.6262 5.3972 11.565 8.4813 15.421 15.421" class="st35"/>
<path id="XMLID_60_" opacity="0.76" d="m569.02 383.8c0.77103-6.9392 0.77103-13.878 1.542-20.818 0-1.542 0.77103-3.8551 1.542-4.6262 2.3131-1.542 5.3972 0.77103 7.7103-0.77102-6.9392-24.673-14.649-49.346-23.131-73.247 6.9392 1.542 11.565 9.2523 14.649 15.421 8.4813 17.734 16.192 36.238 21.589 55.514 0 0.77103 0.77102 2.3131 0 3.0841 0 0.77103-0.77103 0.77103-0.77103 1.5421-7.7102 8.4813-14.649 16.963-22.36 24.673" class="st12"/>
<path id="XMLID_2_" d="m308.41 100.84c-161.92 0-292.99 136.47-292.99 304.56 0 89.439 44.72 199.7 117.97 255.21 34.696 26.215 82.5 29.299 125.68 25.444 87.126-8.4813 171.94-42.406 240.56-97.149 2.3131-1.542 8.4813-9.2523 10.794-10.794l18.505-18.505c31.612-33.925 69.392-80.958 73.247-129.53 4.6262-52.43-9.2523-111.8-31.612-158.83-47.033-101.78-148.81-170.4-262.15-170.4z" class="st36" stroke="#000" stroke-miterlimit="10" stroke-width="7.7103" fill="url(#XMLID_481_)"/>
<path id="XMLID_25_" d="m224.37 502.54l45.491-45.491c47.033-47.033 94.836-95.607 128.76-152.66-6.1682-0.77103-11.565-1.542-17.734-2.3131 35.467-26.215 81.729-36.238 124.91-28.528-6.1682-33.925-12.336-68.621-18.505-102.55 25.444 16.963 46.262 40.864 59.369 68.621-5.3972-0.77103-10.023-1.542-15.421-2.3131 0.77103 49.346 1.542 98.691 3.0841 147.27 11.565-6.9392 23.902-13.878 35.467-20.047-5.3972 29.299-26.215 53.972-50.117 70.934-23.902 16.963-53.201 26.986-80.958 37.009-74.018 25.444-150.35 47.033-228.99 52.43 9.2523-8.4813 16.963-18.505 22.36-30.07" class="st4" fill="#ac8faa"/>
<g stroke="#000" stroke-width="7.7103" stroke-miterlimit="10">
<path id="XMLID_17_" d="m120.5 501.43c-33.921-12.34-58.047-57.49-87.346-78.31-6.9392 18.505-6.9392 39.322 1.5421 57.827 5.3972 11.565 8.4813 16.192 16.192 26.215" class="st37" fill="url(#XMLID_482_)"/>
<path id="XMLID_15_" d="m87.897 501c-26.215-10.03-33.925-43.18-56.285-59.37-5.3972 14.649-5.3972 30.841 0.77103 44.719 3.8551 9.2523 6.1682 13.107 12.336 20.818" class="st0"/>
<path id="XMLID_16_" d="m239.02 497.91c73.247-40.864 125.68-125.68 197.38-171.17 7.7103-5.3972 16.192-10.023 24.673-10.023 28.528-1.542 52.43 40.093 39.322 73.247 0.77102 5.3972 3.0841 3.8551 0 7.7102-1.5421 16.963-10.023 26.986-20.818 37.009" class="st38" fill="url(#XMLID_483_)"/>
<path id="XMLID_14_" d="m239.02 497.91c73.247-31.612 125.68-98.691 197.38-134.93 7.7103-3.8551 16.192-7.7103 24.673-7.7103 28.528-1.542 52.43 31.612 39.322 57.827 0.77102 3.8551 3.0841 3.0841 0 6.1682-1.5421 13.107-10.023 21.589-20.818 29.299" class="st0"/>
<path id="XMLID_3_" d="m188.9 126.28c-38.551 64.766-51.659 141.1-61.682 215.12-7.7103 59.369-13.878 120.28 0 178.88 13.878 58.598 50.117 114.88 106.4 140.33" class="st10" fill="none"/>
</g>
<path id="XMLID_42_" d="m24.673 477.87c13.878 18.505 39.322 23.131 62.453 25.444 97.149 8.4813 193.53-10.023 285.28-38.551 47.033-14.649 92.523-31.612 138.01-50.117 33.925-13.107 55.514-15.421 81.729-41.635 6.1682 5.3972 10.023 13.107 12.336 20.818 20.047 53.972-9.2523 113.34-45.491 158.06-28.528 33.925-61.682 63.995-98.691 87.897-54.743 35.467-116.42 59.369-178.11 81.729-48.575 17.734-56.285 3.0841-88.668-24.673-31.6-27-72.47-40.11-102.54-70.95-30.84-32.38-50.887-73.24-70.162-113.34-4.626-10.02-1.542-17.73-1.542-29.3" fill="url(#XMLID_484_)" class="st39"/>
<path id="XMLID_41_" d="m24.673 477.87c7.7103 10.023 19.276 16.192 30.841 19.276 11.565 3.0841 24.673 4.6262 37.009 5.3972 12.336 0.77102 24.673 0.77102 37.009 0.77102s24.673-0.77102 37.009-1.542c12.336-0.77102 24.673-2.3131 37.009-3.8551l18.505-2.3131c6.1682-0.77103 12.336-1.5421 18.505-3.0841 24.673-3.8551 48.575-9.2523 73.247-15.421 48.575-12.336 95.607-27.757 141.87-45.491l34.696-13.107c11.565-4.6262 23.131-9.2523 34.696-13.107 11.565-3.8551 23.902-7.7103 34.696-13.107 10.794-5.3972 20.818-12.336 29.299-20.818l2.3131-2.3131 2.3131 2.3131c7.7103 7.7103 12.336 16.963 14.649 26.215 0.77103 2.3131 1.542 4.6262 2.3131 6.9392l1.542 7.7102c0.77103 4.6262 1.542 10.023 1.542 14.649 0.77103 20.047-3.0841 39.322-10.023 57.056-6.9392 18.505-16.192 35.467-27.757 50.888-10.794 16.192-23.902 30.07-37.009 44.719-26.986 27.757-57.056 51.659-89.439 71.705-33.154 20.047-67.85 36.238-103.32 50.117-17.734 6.9392-35.467 13.878-53.201 20.818-9.2523 3.0841-17.734 6.9392-27.757 9.2523-9.2523 2.3131-20.047 3.8551-30.07 0.77103s-18.505-9.2523-26.215-15.421c-7.7103-6.1682-14.649-13.107-21.589-18.505-14.649-11.565-30.841-20.818-47.033-30.841-16.192-9.2523-33.154-20.047-47.033-33.154-13.864-13.89-25.43-29.31-35.453-45.51-10.023-16.19-18.505-33.15-26.986-50.88l-10.794-26.99c-3.8551-9.2523-0.77103-19.276-0.77103-28.528 0 9.2523-2.3131 19.276 1.542 27.757l13.107 25.444c8.4813 16.963 17.734 33.154 28.528 49.346 10.794 15.421 22.36 30.841 36.238 43.177s30.07 22.36 46.262 31.612c16.192 9.2523 33.154 19.276 48.575 31.612 7.7102 6.1682 14.649 12.336 21.589 18.505 6.9392 6.1682 14.649 11.565 23.131 13.878 8.4813 2.3131 17.734 1.542 26.215-0.77103 8.4813-2.3131 17.734-5.3972 26.986-9.2523 17.734-6.9392 35.467-13.107 53.201-20.818 35.467-13.878 70.163-30.07 101.78-50.117 32.383-20.047 61.682-43.948 87.897-70.934 13.107-13.878 25.444-27.757 36.238-43.177 10.794-15.421 20.047-31.612 26.215-49.346 6.9392-17.734 10.023-36.238 10.023-54.743 0-4.6262-0.77103-9.2523-1.542-13.878l-1.542-6.9392c-0.77103-2.3131-1.542-4.6262-2.3131-6.9392-2.3131-8.4813-6.9392-16.963-13.107-23.131h5.3972c-9.2523 9.2523-19.276 16.963-30.841 22.36-11.565 5.3972-23.902 9.2523-35.467 13.878-11.565 3.8551-23.131 8.4813-34.696 13.107l-34.696 13.107c-47.033 17.734-94.065 33.154-142.64 45.491-23.902 6.1682-48.575 11.565-73.247 15.421-12.336 2.3131-24.673 3.8551-37.009 5.3972-12.336 1.542-24.673 2.3131-37.78 2.3131-12.336 0.77103-25.444 0.77103-37.78 0-12.336 0-25.444-0.77102-37.78-2.3131-12.336-0.77103-24.673-3.0841-37.009-6.9392-11.565-0.77103-23.131-7.7103-30.07-17.734z"/>
<path id="XMLID_54_" opacity="0.76" d="m498.85 571.16c-5.3972 7.7103-13.878 13.107-23.131 13.878 10.794-26.215 13.878-54.743 17.734-82.5 3.0841-20.818 7.7102-43.948 25.444-56.285 6.1682 12.336 4.6262 26.986 2.3131 40.864-1.542 11.565-3.0841 23.902-5.3972 35.467-3.0841 17.734-5.3972 35.467-16.963 48.575" class="st3" fill="#fff"/>
<g fill="#ac8faa">
<path id="XMLID_30_" d="m226.68 540.32c0-6.9392 1.542-14.649 6.9392-18.505 4.6262-3.8551 11.565-4.6262 17.734-4.6262 3.0841 0 5.3972 0 7.7103 1.5421 3.8551 2.3131 5.3972 6.1682 7.7103 10.794 12.336 32.383 0.77102 63.224-6.9392 95.607-3.8551 16.963-16.192 33.154-24.673 48.575-1.542 3.8551-6.1682 7.7102-9.2523 4.6262-2.3131-1.542-1.542-4.6262-0.77102-7.7103 6.1682-21.589 12.336-43.177 13.878-65.537 0.77103-11.565 0.77103-23.902-2.3131-35.467-2.3131-10.023-10.023-18.505-10.023-29.299z" class="st4"/>
<path id="XMLID_28_" d="m434.09 497.14c-0.77103-12.336 6.1682-23.902 16.192-32.383 10.023-8.4813 22.36-13.878 35.467-18.505 3.0841-0.77102 6.1682-1.542 7.7103 0.77103 0.77102 1.542 0.77102 3.0841 0 4.6262-3.0841 11.565-10.023 22.36-13.878 33.925-10.794 28.528-7.7102 60.14-16.192 89.439-3.0841 9.2523-6.9392 19.276-14.649 26.215-7.7103 7.7103-18.505 12.336-30.07 11.565 18.505-37.78 25.444-80.187 20.047-120.28" class="st4"/>
<path id="XMLID_29_" d="m325.37 541.86c0.77102-6.9392-7.7103-10.794-10.023-17.734-2.3131-8.4813 6.9392-15.421 14.649-19.276 10.794-5.3972 21.589-10.023 33.154-14.649 3.8551-1.5421 7.7102-3.0841 10.794-2.3131 6.1682 1.542 9.2523 7.7103 11.565 13.878 10.023 30.07 6.9392 63.995-6.9392 92.523s-38.551 51.659-67.079 64.766c12.336-12.336 18.505-29.299 21.589-46.262 2.3131-16.963 1.5421-34.696 0.77103-51.659-0.77103-10.023-2.3131-21.589-10.023-27.757" class="st4"/>
</g>
<path id="XMLID_33_" opacity="0.76" d="m319.98 645.95c-0.77103 6.1682-4.6262 12.336-10.794 15.421-0.77103-30.841-3.0841-61.682-6.9392-91.752-1.542-14.649-3.8551-30.841 5.3972-41.635 6.9392-8.4813 18.505-12.336 27.757-18.505 4.6262 3.8551 5.3972 11.565 5.3972 17.734 0 18.505 0 36.238-0.77102 54.743 0 23.902-1.5421 49.346-17.734 66.308" class="st3" fill="#fff"/>
<path id="XMLID_27_" d="m538.95 430.83c3.0841-6.9392 7.7103-13.878 13.878-18.505 6.1682-4.6262 15.421-5.3972 21.589 0 3.0841 3.0841 4.6262 6.9392 6.1682 10.794 5.3972 18.505 0.77102 37.78-4.6262 56.285-3.8551 12.336-7.7102 24.673-12.336 36.238-4.6262 12.336-10.023 23.902-18.505 33.925-11.565 13.107-29.299 20.818-45.491 26.986 22.36-47.033 37.78-97.92 44.719-149.58" class="st4" fill="#ac8faa"/>
<path id="XMLID_50_" opacity="0.76" d="m427.92 595.83c-2.3131 10.794-13.878 18.505-23.902 16.192 8.4813-29.299 4.6262-60.911 3.0841-91.752 0-5.3972-0.77103-10.794 1.542-15.421 2.3131-6.1682 7.7103-10.794 12.336-14.649 3.8551-3.0841 8.4813-6.9392 13.878-5.3972 6.1682 1.542 8.4813 9.2523 9.2523 16.192 2.3131 20.047 4.6262 40.093-1.542 59.369-3.8551 11.565-10.023 23.131-11.565 35.467" class="st3" fill="#fff"/>
<path id="XMLID_23_" d="m33.925 511.02c2.3131 5.3972 5.3972 10.023 7.7103 15.421-3.855-12.34-7.71-11.56-11.565-23.13 15.421 10.023 32.383 16.192 50.117 18.505 7.7103 1.542 16.192 1.542 23.131 5.3972 8.4813 4.6262 13.107 13.878 17.734 23.131 6.9392 13.878 13.107 27.757 18.505 41.635 3.0841 8.4813 6.1682 16.963 10.023 24.673 12.336 27.757 31.612 52.43 54.743 72.476-3.0841 3.8551-8.4813 0.77103-12.336-2.3131-25.44-19.28-50.11-38.56-75.56-57.83-14.64-10.8-28.523-21.59-40.859-35.47-17.734-19.28-30.07-42.41-35.468-67.85" class="st4" fill="#ac8faa"/>
<path id="XMLID_5_" d="m196.61 699.15c28.528 0 56.285-6.9392 83.271-13.878 45.491-11.565 90.21-25.444 133.39-42.406 38.551-14.649 76.608-28.775 109.76-54.219" class="st10" stroke="#000" stroke-miterlimit="10" stroke-width="7.7103" fill="none"/>
<path id="XMLID_31_" opacity=".7" d="m301.47 503.31c70.934-26.986 142.64-53.972 212.8-81.729 23.902-9.2523 47.804-19.276 71.705-29.299 4.6262 14.649 6.1682 30.07 4.6262 45.491 0-11.565-13.107-19.276-24.673-16.963-11.565 2.3131-20.818 9.2523-30.07 16.192-53.201 39.322-118.74 57.056-183.5 72.476-24.673 6.1682-51.659 13.107-67.85 33.154-3.0841-10.023-2.3131-20.818 3.0841-29.299 5.3972-8.4813 16.192-13.878 26.215-13.107" class="st40" fill="#fff"/>
<path id="XMLID_32_" opacity="0.76" d="m228.22 663.68c0.77103 5.3972 0.77103 10.794 0 15.421-20.818-31.612-10.794-63.995-13.878-99.462-1.542-14.649-5.3972-36.238 6.9392-48.575 14.649-15.421 23.131 3.0841 23.902 16.963 0.77102 11.565 0.77102 23.131 0.77102 33.925s0 20.818-2.3131 31.612c-3.8551 17.734-13.107 34.696-12.336 53.201-0.77102-0.77103-1.542-2.3131-1.542-3.0841" class="st3" fill="#fff"/>
<g stroke="#000" stroke-miterlimit="10">
<path id="XMLID_6_" d="m138.78 542.63c15.421 0 23.131-2.3131 39.322-3.0841 0.77103 0 1.542 0 2.3131 0.77103v3.0841c5.3972 42.406 10.794 84.813 15.421 127.22-19.276-6.9392-29.299-28.528-35.467-48.575-8.4813-24.673-16.192-49.346-23.902-74.018-1.3953-2.9698 0.31397-3.5941 4.1691-5.9072" class="st0" stroke-width="7.7103"/>
<path id="XMLID_7_" d="m230.54 534.15c6.1682-13.107 20.818-14.649 26.215-2.3131 13.107 29.299-21.589 143.41-30.07 138.01-3.0841-1.542 0-16.192 0-85.584 0-27.757-0.77103-40.864 3.8551-50.117z" class="st41" stroke-width="5.7827"/>
<g stroke-width="7.7103">
<path id="XMLID_8_" d="m535.86 543.4c14.649-21.589 24.673-49.346 29.299-64.766 2.3131-9.2523 6.1682-51.659-6.1682-55.514-2.3131-0.77102-5.3972 0-7.7103 0.77103-8.4813 2.3131-16.963 4.6262-23.131 10.023-15.421 12.336-13.878 49.346-17.734 67.079-5.3972 24.673-13.878 48.575-22.36 72.476 18.505 3.8551 35.467-10.794 47.804-30.07z" class="st0"/>
<path id="XMLID_9_" d="m417.12 604.31c16.192-33.925-3.0841-73.247 7.7103-107.94 1.542-5.3972 6.1682-10.023 10.794-13.878 12.336-11.565 26.215-20.818 40.864-26.986-13.878 6.1682-28.528 114.88-33.154 131.07-3.8551 10.794-15.421 22.36-26.215 17.734z" class="st0"/>
<path id="XMLID_10_" d="m320.75 526.44c12.336-10.794 26.215-19.276 41.635-24.673 2.3131-0.77102 3.8551-1.542 6.1682-0.77102 3.8551 0.77102 6.1682 6.1682 6.1682 10.023 2.3131 13.878 0.77103 27.757-0.77102 41.635-1.5421 13.107-3.8551 26.215-8.4813 38.551-5.3972 14.649-14.649 26.986-24.673 38.551-3.0841 3.8551-24.673 20.047-24.673 23.902 3.8551-33.925 6.9392-63.224 2.3131-97.92-1.5421-12.336-2.3131-27.757 8.4813-33.925" class="st0"/>
<path id="XMLID_11_" d="m54.743 532.61c8.4813 5.3972 17.734 10.794 28.528 11.565 3.8551 0 6.9392 0 10.023 1.542 3.8551 2.3131 6.1682 6.1682 7.7102 10.023 10.794 26.986 20.818 55.514 37.78 78.645-22.36-6.9392-38.551-26.986-52.43-46.262-10.022-13.89-27.756-33.93-29.298-52.44" class="st0"/>
<path id="XMLID_12_" d="m500.4 416.18c22.36-83.271 14.649-174.25-20.818-252.13" class="st10" fill="none"/>
</g>
</g>
<path id="XMLID_44_" d="m589.06 309.01c-13.87-82.5-47.8-163.46-109.48-219.74-61.68-56.285-169.63-108.72-231.31-53.201-53.2 47.803-86.35 115.65-104.86 185.05-18.5 69.39-23.13 141.86-27.76 213.57 0 1.542 0 3.8551-0.7711 7.7102-0.771 28.528 4.6262 52.43 10.023 68.621 8.4812-2.3131 20.047-6.1682 23.902-16.963 3.8551-10.023 3.0841-20.818 3.0841-31.612-3.0841-71.705 4.6261-144.18 26.986-212.03 12.336-37.78 25.444-76.332 49.346-108.71 60.358-62.381 129.91-51.195 197.38-13.878 37.009 18.505 72.476 41.635 100.23 73.247 29.299 32.383 37.009 70.934 60.14 104.86" class="st42" fill="url(#XMLID_485_)"/>
<path id="XMLID_37_" d="m588.29 309.78c-7.71-41.63-20.82-82.5-38.55-120.28-18.5-37.78-43.95-72.47-75.56-100.23-16.19-13.879-33.15-26.215-50.89-37.01-17.73-10.794-37.01-20.046-57.05-26.214-20.047-6.9392-40.864-10.794-60.911-9.2523-20.047 0.77102-40.864 8.4813-55.514 22.36-16.192 13.878-30.07 29.299-42.406 46.262s-23.131 35.467-32.383 53.972c-18.505 37.78-30.841 78.645-39.322 120.28-7.7102 41.635-12.336 83.271-15.42 125.68-1.542 20.818-3.0841 42.406-3.8551 63.224 0 20.818 3.8551 41.635 10.794 61.682l-3.0841-1.542c10.794-3.0841 21.589-7.7102 23.131-18.505 3.0841-10.023 1.5421-21.589 0.771-33.154-0.771-23.131-0.771-46.262 0.7711-68.621 3.0841-45.491 11.565-91.752 25.444-134.93 6.9392-21.589 14.65-43.948 23.902-64.766 9.2523-20.818 20.818-41.635 36.238-59.369 7.7103-8.4813 17.734-16.192 28.528-21.589 10.794-5.3972 22.36-8.4813 33.925-10.023 11.565-1.542 24.118-0.55447 37.659-0.83175 27.577 1.8971 36.333 5.5834 66.43 17.023 11.565 5.3972 23.902 10.794 35.467 16.963 23.131 12.336 45.49 26.986 65.537 43.948 10.023 8.4813 19.276 17.734 27.757 27.757 4.6262 4.6262 8.4813 10.794 11.565 16.192 3.8551 5.3972 6.9392 11.565 10.023 16.963 12.336 23.131 20.818 48.575 35.467 70.163l-0.771 0.77102c-15.42-21.589-24.673-46.262-37.009-69.392-3.0841-5.3972-6.9393-11.565-10.023-16.963-3.8551-5.3972-7.7102-10.794-11.565-15.421-8.4813-10.023-17.734-18.505-27.757-26.986-20.047-16.963-42.406-30.841-65.537-42.406-11.565-6.1682-23.131-11.565-35.467-16.963-33.35-12.527-32.399-19.028-67.85-16.192-11.565 0.77102-22.36 0.77102-33.925 2.3131-10.794 1.542-21.589 4.6262-31.612 9.2523-10.023 4.6262-18.505 11.565-25.444 20.047-14.65 16.963-26.215 36.238-34.696 57.056-9.2523 20.818-16.192 42.406-23.131 63.995-13.878 43.177-22.36 87.897-25.444 133.39-1.542 22.36-2.3131 45.491-1.542 67.85 0 11.565 1.542 23.131-1.5421 34.696-0.771 3.0841-2.3131 6.1682-3.8551 8.4813-1.5421 2.3131-4.6262 4.6262-6.9393 6.9392-5.3971 3.8551-10.794 5.3972-16.192 6.9392l-2.3131 0.77102-0.771-2.3131c-6.9392-20.047-10.023-41.635-10.023-63.224 0.771-21.589 3.0841-42.406 4.6261-63.224 3.8552-42.406 7.7103-84.813 16.192-125.68 3.8551-20.818 9.2523-41.635 15.42-61.682 6.1682-20.047 13.878-40.093 23.131-59.369 9.2523-19.276 19.276-37.78 31.612-55.514 12.336-16.963 26.215-33.925 41.635-47.804 16.192-15.421 37.78-23.131 59.369-24.673s43.177 2.3131 63.995 9.2523c20.047 6.9392 40.093 16.192 57.827 26.986 18.505 10.794 35.467 23.902 51.659 37.78 32.383 28.528 57.056 63.995 74.79 102.55 17.734 38.551 29.299 80.187 34.696 122.59z"/>
<path id="XMLID_21_" d="m47.033 290.51c19.276-47.804 51.659-90.21 93.294-121.05-32.383 77.874-50.117 161.14-52.43 245.19-0.77103 26.215-0.21653 51.78 15.204 72.598-26.986-28.528-47.587-59.49-63.008-95.729-3.8551 3.0841-6.9392 6.9392-10.794 10.023-5.3972-40.093 2.3131-80.958 21.589-116.42" class="st4" fill="#ac8faa"/>
<path id="XMLID_22_" d="m266.77 716.11c-9.2523 8.4813-30.07 4.6262-35.467-6.9392 0 5.3972 3.8551 10.794 8.4813 12.336 5.3972 1.542 11.565-0.77103 14.649-5.3972-9.2523 3.0841-17.734 3.0841-18.505-6.9392 27.757-9.2523 56.285-17.734 85.584-23.902 29.299-6.1682 58.598-15.421 85.584-27.757-6.9392 3.0841-14.649 6.9392-21.589 10.023" class="st4" fill="#ac8faa"/>
<path id="XMLID_24_" opacity="0.76" d="m161.92 458.59c0.77103-101.78 7.7103-210.49 69.392-291.45 10.794-13.878 23.131-26.986 38.551-34.696 11.565-6.1682 24.673-8.4813 37.78-10.023 58.598-6.1682 119.51 10.794 165.77 47.804-16.963-0.77103-33.925-1.542-50.117-2.3131-34.696-1.542-71.705-2.3131-103.32 13.107-32.383 16.192-53.201 47.804-71.705 78.645-35.467 60.14-64.766 124.14-87.126 190.44" class="st3" fill="#fff"/>
<path id="XMLID_26_" opacity="0.54" d="m576.73 297.45c-23.9-94.84-101.01-194.3-198.16-225.14-43.17-13.11-88.66-18.508-126.44 10.02-36.238 27.757-63.995 67.079-82.5 108.71-23.902 53.972-33.154 112.57-40.864 171.17-3.0841 24.673-6.1682 50.888-3.8551 75.561 0.771 11.565 3.0841 23.902 7.7102 34.696 1.5421 5.3972 13.107 23.902 9.2523 29.299 6.9393-10.794 6.1682-23.902 6.1682-36.238s3.0841-23.902 1.5421-36.238c-3.0841-29.299 1.542-57.827 5.3972-86.355 4.6261-31.612 9.2523-60.911 18.505-92.523 3.8551-13.107 10.023-24.673 13.878-37.78 10.023-32.383 24.673-66.308 50.117-89.439 16.192-14.649 37.009-23.131 58.598-26.215 65.874-0.32264 81.313 4.6522 116.92 21.896 7.7103 4.6262 15.698 7.4026 23.408 11.258 9.2523 5.3972 18.505 10.794 27.757 16.192 10.023 5.3972 17.734 16.963 27.757 22.36 9.2523 5.3972 17.734 10.794 25.444 19.276 4.6262 5.3972 11.565 8.4813 15.42 15.421" class="st43" fill="#ac8faa"/>
<path id="XMLID_57_" opacity="0.76" d="m569.02 383.8c0.77103-6.9392 0.77103-13.878 1.542-20.818 0-1.542 0.77103-3.8551 1.542-4.6262 2.3131-1.542 5.3972 0.77103 7.7103-0.77102-6.9392-24.673-14.649-49.346-23.131-73.247 6.9392 1.542 11.565 9.2523 14.649 15.421 8.4813 17.734 16.192 36.238 21.589 55.514 0 0.77103 0.77102 2.3131 0 3.0841 0 0.77103-0.77103 0.77103-0.77103 1.5421-7.7102 8.4813-14.649 16.963-22.36 24.673" class="st3" fill="#fff"/>
</g>
</g>
</svg>
